<svg width="118" height="32" viewBox="0 0 118 32" fill="none" xmlns="http://www.w3.org/2000/svg">
<g clip-path="url(#clip0_197_236)">
<path d="M36.0009 22.9139V8.68945H38.0023V13.5443C38.6624 12.7745 39.5813 12.1427 41.3019 12.1427C44.4434 12.1427 46.1778 14.6735 46.1778 17.686C46.1778 20.6986 44.3547 23.3153 41.2773 23.3153C39.7495 23.3153 38.7291 22.8207 38.0014 21.8927V22.9148H36L36.0009 22.9139ZM41.1383 14.049C39.3527 14.049 38.0617 15.4479 38.0617 17.6851C38.0617 19.9224 39.3527 21.3861 41.1383 21.3861C42.9239 21.3861 44.1938 19.9233 44.1938 17.6851C44.1938 15.4469 43.0107 14.049 41.1383 14.049Z" fill="white"/>
<path d="M50.5717 12.5649H48.5703V22.9147H50.5717V12.5649Z" fill="white"/>
<path d="M56.537 12.5651H58.7742V14.3937H56.537V19.5713C56.537 20.6309 57.0197 21.1932 58.1434 21.1932H58.7742V23.0218H58.1434C55.4005 23.0218 54.5146 21.9603 54.5146 19.5713V14.3937H52.5352V12.5651H54.6865V8.68945H56.537V12.5651Z" fill="white"/>
<path d="M89.3705 12.5649H87.3691V22.9147H89.3705V12.5649Z" fill="white"/>
<path d="M111.112 20.7734C110.63 21.9949 109.238 23.3178 106.828 23.3178C104.052 23.3178 101.621 21.215 101.621 17.7078C101.621 14.4584 103.966 12.2422 106.57 12.2422C109.755 12.2422 111.54 14.4365 111.54 17.6639C111.54 17.9217 111.518 18.1805 111.497 18.3094H103.708C103.751 20.1599 105.085 21.4509 106.828 21.4509C108.571 21.4509 109.319 20.5713 109.854 19.5254L111.113 20.7734H111.112ZM109.432 16.6746C109.389 15.1898 108.421 14.0278 106.591 14.0278C104.891 14.0278 103.858 15.3407 103.772 16.6746H109.431H109.432Z" fill="white"/>
<path d="M69.8408 20.7734C69.3581 21.9949 67.9665 23.3178 65.5565 23.3178C62.7807 23.3178 60.3496 21.215 60.3496 17.7078C60.3496 14.4584 62.6948 12.2422 65.2986 12.2422C68.4831 12.2422 70.2687 14.4365 70.2687 17.6639C70.2687 17.9217 70.2467 18.1805 70.2257 18.3094H62.4369C62.4799 20.1599 63.8138 21.4509 65.5565 21.4509C67.2991 21.4509 68.0479 20.5713 68.5828 19.5254L69.8417 20.7734H69.8408ZM68.1604 16.6746C68.1174 15.1898 67.1492 14.0278 65.3197 14.0278C63.62 14.0278 62.5869 15.3407 62.5009 16.6746H68.1594H68.1604Z" fill="white"/>
<path d="M50.5717 8.68945H48.5703V10.604H50.5717V8.68945Z" fill="white"/>
<path d="M89.3705 8.68945H87.3691V10.604H89.3705V8.68945Z" fill="white"/>
<path d="M78.344 19.9093C78.8131 20.8922 79.9248 21.5276 81.1161 21.5148C82.2563 21.5029 82.8807 20.8693 82.8807 20.1379C82.8807 19.4924 82.4071 18.9978 81.5468 18.804L79.7822 18.4163C78.1685 18.0725 77.2003 16.9745 77.2003 15.5116C77.2003 13.747 78.8569 12.2412 80.8793 12.2412C83.0096 12.2412 84.0382 13.2817 84.51 14.1932L83.326 15.401C83.0727 14.8808 82.334 13.9518 80.8793 13.9628C79.8471 13.9701 79.1577 14.6302 79.1577 15.3397C79.1577 15.9642 79.5454 16.4158 80.3408 16.5877L82.0195 16.9534C83.891 17.3621 84.8812 18.5022 84.8812 20.03C84.8812 21.5578 83.6542 23.2364 81.0942 23.2364C78.8944 23.2364 77.6757 22.1393 77.1582 21.0952L78.344 19.9093Z" fill="white"/>
<path d="M91.7617 22.9137V21.1491L97.4422 14.3925H91.8477V12.564H99.9592V14.3285L94.2787 21.0851H100.067V22.9137H91.7617Z" fill="white"/>
<g clip-path="url(#clip1_197_236)">
<path d="M6.71889 11.4571L17.3193 0.856689L18.1467 0.0292969L18.9741 0.856689L24.4347 6.31724L25.2621 7.14463L24.4347 7.97203L16.3737 16.033L24.4347 24.0939L25.2621 24.9213L24.4347 25.7487L18.9741 31.2092L18.1467 32.0366L17.3193 31.2092L6.71889 20.6088L6.68963 20.5795C5.47487 19.3648 4.80664 17.7498 4.80664 16.033C4.80664 14.3161 5.47604 12.7011 6.68963 11.4864L6.71889 11.4571ZM18.1467 1.68408L7.54628 12.2845C7.14136 12.6894 7.42808 13.3834 8.00152 13.3834H8.27771C9.74057 13.3834 10.9272 14.5701 10.9272 16.033C10.9272 17.4958 9.74057 18.6825 8.27771 18.6825H8.00152C7.42808 18.6825 7.14136 19.3753 7.54628 19.7814L18.1467 30.3818L23.6073 24.9213L14.719 16.033L23.6073 7.14463L18.1467 1.68408ZM8.27771 14.4776C7.87981 14.4776 7.48191 14.6298 7.17881 14.9329C6.57143 15.5403 6.57143 16.5245 7.17881 17.1319C7.48191 17.435 7.87981 17.5871 8.27771 17.5871C8.67561 17.5871 9.0735 17.435 9.37661 17.1319C9.98399 16.5245 9.98399 15.5403 9.37661 14.9329C9.0735 14.6298 8.67561 14.4776 8.27771 14.4776ZM19.5909 23.5321L21.1497 25.091L19.5909 26.6498L18.032 25.091L19.5909 23.5321ZM16.678 20.6205L18.2368 22.1793L16.678 23.7381L15.1192 22.1793L16.678 20.6205ZM13.7652 17.7076L15.324 19.2665L13.7652 20.8253L12.2064 19.2665L13.7652 17.7076ZM18.032 6.97494L19.5909 5.41612L21.1497 6.97494L19.5909 8.53376L18.032 6.97494ZM15.1192 9.88778L16.678 8.32896L18.2368 9.88778L16.678 11.4466L15.1192 9.88778ZM12.2075 12.7995L13.7663 11.2406L15.3252 12.7995L13.7663 14.3583L12.2075 12.7995Z" fill="white"/>
</g>
</g>
<defs>
<clipPath id="clip0_197_236">
<rect width="117.486" height="32" fill="white"/>
</clipPath>
<clipPath id="clip1_197_236">
<rect width="32.0658" height="32.0658" fill="white"/>
</clipPath>
</defs>
</svg>
