<svg width="118" height="32" viewBox="0 0 118 32" fill="none" xmlns="http://www.w3.org/2000/svg">
<g clip-path="url(#clip0_197_238)">
<path d="M36.0009 22.9139V8.68945H38.0023V13.5443C38.6624 12.7745 39.5813 12.1427 41.3019 12.1427C44.4434 12.1427 46.1778 14.6735 46.1778 17.686C46.1778 20.6986 44.3547 23.3153 41.2773 23.3153C39.7495 23.3153 38.7291 22.8207 38.0014 21.8927V22.9148H36L36.0009 22.9139ZM41.1383 14.049C39.3527 14.049 38.0617 15.4479 38.0617 17.6851C38.0617 19.9224 39.3527 21.3861 41.1383 21.3861C42.9239 21.3861 44.1938 19.9233 44.1938 17.6851C44.1938 15.4469 43.0107 14.049 41.1383 14.049Z" fill="black"/>
<path d="M50.5717 12.5649H48.5703V22.9147H50.5717V12.5649Z" fill="black"/>
<path d="M56.537 12.5651H58.7742V14.3937H56.537V19.5713C56.537 20.6309 57.0197 21.1932 58.1434 21.1932H58.7742V23.0218H58.1434C55.4005 23.0218 54.5146 21.9603 54.5146 19.5713V14.3937H52.5352V12.5651H54.6865V8.68945H56.537V12.5651Z" fill="black"/>
<path d="M89.3705 12.5649H87.3691V22.9147H89.3705V12.5649Z" fill="black"/>
<path d="M111.112 20.7734C110.63 21.9949 109.238 23.3178 106.828 23.3178C104.052 23.3178 101.621 21.215 101.621 17.7078C101.621 14.4584 103.966 12.2422 106.57 12.2422C109.755 12.2422 111.54 14.4365 111.54 17.6639C111.54 17.9217 111.518 18.1805 111.497 18.3094H103.708C103.751 20.1599 105.085 21.4509 106.828 21.4509C108.571 21.4509 109.319 20.5713 109.854 19.5254L111.113 20.7734H111.112ZM109.432 16.6746C109.389 15.1898 108.421 14.0278 106.591 14.0278C104.891 14.0278 103.858 15.3407 103.772 16.6746H109.431H109.432Z" fill="black"/>
<path d="M69.8408 20.7734C69.3581 21.9949 67.9665 23.3178 65.5565 23.3178C62.7807 23.3178 60.3496 21.215 60.3496 17.7078C60.3496 14.4584 62.6948 12.2422 65.2986 12.2422C68.4831 12.2422 70.2687 14.4365 70.2687 17.6639C70.2687 17.9217 70.2467 18.1805 70.2257 18.3094H62.4369C62.4799 20.1599 63.8138 21.4509 65.5565 21.4509C67.2991 21.4509 68.0479 20.5713 68.5828 19.5254L69.8417 20.7734H69.8408ZM68.1604 16.6746C68.1174 15.1898 67.1492 14.0278 65.3197 14.0278C63.62 14.0278 62.5869 15.3407 62.5009 16.6746H68.1594H68.1604Z" fill="black"/>
<path d="M50.5717 8.68945H48.5703V10.604H50.5717V8.68945Z" fill="black"/>
<path d="M89.3705 8.68945H87.3691V10.604H89.3705V8.68945Z" fill="black"/>
<path d="M78.344 19.9093C78.8131 20.8922 79.9248 21.5276 81.1161 21.5148C82.2563 21.5029 82.8807 20.8693 82.8807 20.1379C82.8807 19.4924 82.4071 18.9978 81.5468 18.804L79.7822 18.4163C78.1685 18.0725 77.2003 16.9745 77.2003 15.5116C77.2003 13.747 78.8569 12.2412 80.8793 12.2412C83.0096 12.2412 84.0382 13.2817 84.51 14.1932L83.326 15.401C83.0727 14.8808 82.334 13.9518 80.8793 13.9628C79.8471 13.9701 79.1577 14.6302 79.1577 15.3397C79.1577 15.9642 79.5454 16.4158 80.3408 16.5877L82.0195 16.9534C83.891 17.3621 84.8812 18.5022 84.8812 20.03C84.8812 21.5578 83.6542 23.2364 81.0942 23.2364C78.8944 23.2364 77.6757 22.1393 77.1582 21.0952L78.344 19.9093Z" fill="black"/>
<path d="M91.7617 22.9137V21.1491L97.4422 14.3925H91.8477V12.564H99.9592V14.3285L94.2787 21.0851H100.067V22.9137H91.7617Z" fill="black"/>
<g clip-path="url(#clip1_197_238)">
<path d="M14.9536 16.033L23.8419 24.9213L18.3814 30.3818L7.78443 19.7849C7.37717 19.3776 7.66623 18.6825 8.24085 18.6825H8.51235C9.97521 18.6825 11.1619 17.4958 11.1619 16.033C11.1619 14.5701 9.97521 13.3834 8.51235 13.3834H8.24085C7.66623 13.3834 7.37717 12.6883 7.78443 12.281L18.3814 1.68408L23.8419 7.14464L14.9536 16.033ZM8.51235 17.2934C9.20867 17.2934 9.77275 16.7293 9.77275 16.033C9.77275 15.3366 9.20867 14.7726 8.51235 14.7726C7.81603 14.7726 7.25195 15.3366 7.25195 16.033C7.25195 16.7293 7.81603 17.2934 8.51235 17.2934ZM18.1052 24.9295L19.9882 26.8125L21.8712 24.9295L19.9882 23.0465L18.1052 24.9295ZM15.1923 22.0166L17.0753 23.8996L18.9583 22.0166L17.0753 20.1336L15.1923 22.0166ZM12.2795 19.1038L14.1625 20.9868L16.0455 19.1038L14.1625 17.2208L12.2795 19.1038ZM19.987 9.01943L21.87 7.13644L19.987 5.25345L18.104 7.13644L19.987 9.01943ZM17.0753 11.9311L18.9583 10.0481L17.0753 8.16512L15.1923 10.0481L17.0753 11.9311ZM14.1625 14.8439L16.0455 12.961L14.1625 11.078L12.2795 12.961L14.1625 14.8439Z" fill="black"/>
</g>
</g>
<defs>
<clipPath id="clip0_197_238">
<rect width="117.486" height="32" fill="white"/>
</clipPath>
<clipPath id="clip1_197_238">
<rect width="32.0658" height="32.0658" fill="white"/>
</clipPath>
</defs>
</svg>
