<svg width="360" height="360" viewBox="0 0 360 360" fill="none" xmlns="http://www.w3.org/2000/svg">
<path d="M65.8222 46.7673H46.7676V65.8219H65.8222V46.7673Z" fill="#2B2926"/>
<path d="M88.3408 46.7673H69.2861V65.8219H88.3408V46.7673Z" fill="#2B2926"/>
<path d="M24.1749 65.822H43.2295V46.7674H24.1749L24.1749 65.822Z" fill="#2B2926"/>
<path d="M1.65925 65.822H20.7139L20.7139 46.7674H1.65925L1.65925 65.822Z" fill="#2B2926"/>
<path d="M65.8222 24.178H46.7676V43.2326H65.8222V24.178Z" fill="#2B2926"/>
<path d="M88.3408 24.178H69.2861V43.2326H88.3408V24.178Z" fill="#2B2926"/>
<path d="M24.1749 43.2327H43.2295V24.1781L24.1749 24.1781L24.1749 43.2327Z" fill="#2B2926"/>
<path d="M1.65925 43.2327H20.7139L20.7139 24.1781L1.65925 24.1781L1.65925 43.2327Z" fill="#2B2926"/>
<path d="M38.6803 20.9549H88.3744V1.90332H1.69531V19.1982V20.9549H20.7499H38.6803Z" fill="#392B00"/>
<path d="M38.6803 88.1181H88.3744V69.0635H1.69531V86.3614V88.1181H20.7499H38.6803Z" fill="#392B00"/>
<path d="M148.395 31.7578H121.755V58.3188H148.395V31.7578Z" fill="#2B2926"/>
<path d="M178.341 1.73218H151.862V28.2932H178.341V1.73218Z" fill="#2B2926"/>
<path d="M151.863 31.7578V61.7802H121.755V88.3412H151.863H159.204H178.338V69.8609V61.7802V31.7578H151.863Z" fill="#392B00"/>
<path d="M118.29 61.78H91.7324V88.341H118.29V61.78Z" fill="#2B2926"/>
<path d="M268.341 1.73218H181.735V28.2932H268.341V1.73218Z" fill="#392B00"/>
<path d="M238.398 31.7578H211.758V58.3188H238.398V31.7578Z" fill="#2B2926"/>
<path d="M268.341 31.7578H241.862V58.3188H268.341V31.7578Z" fill="#2B2926"/>
<path d="M208.293 31.7578H181.735V58.3188H208.293V31.7578Z" fill="#2B2926"/>
<path d="M356.261 58.3156C357.608 54.1301 358.338 49.6697 358.338 45.0351C358.338 40.4006 357.608 35.9401 356.261 31.7546H273.807C272.46 35.9401 271.729 40.4006 271.729 45.0351C271.729 49.6697 272.46 54.1301 273.807 58.3156H356.258H356.261Z" fill="#392B00"/>
<path d="M298.293 5.09595C287.845 9.48306 279.477 17.8418 275.09 28.2902H298.293V5.09595Z" fill="#2B2926"/>
<path d="M331.82 28.2933H354.984C350.603 17.8571 342.25 9.50443 331.82 5.11426V28.2933Z" fill="#2B2926"/>
<path d="M328.398 3.84019C324.188 2.47457 319.7 1.73218 315.035 1.73218C310.37 1.73218 305.91 2.47151 301.712 3.82797V28.2932H328.398V3.84019Z" fill="#2B2926"/>
<path d="M298.354 61.78H275.09C279.483 72.2498 287.878 80.6239 298.354 85.0018V61.78Z" fill="#2B2926"/>
<path d="M331.768 61.78V84.9804C342.222 80.5964 350.596 72.2346 354.983 61.78H331.768Z" fill="#2B2926"/>
<path d="M328.347 61.78H301.773V86.2666C305.953 87.6108 310.407 88.341 315.036 88.341C319.664 88.341 324.152 87.6047 328.347 86.2513V61.7831V61.78Z" fill="#2B2926"/>
<path d="M88.3416 117.349V91.7322H62.7246C74.3279 96.4767 83.597 105.746 88.3416 117.349Z" fill="#392B00"/>
<path d="M27.3494 91.7322H1.73242V117.349C6.47698 105.746 15.7461 96.4767 27.3494 91.7322Z" fill="#392B00"/>
<path d="M1.73242 152.724V178.341H27.3494C15.7461 173.597 6.47698 164.327 1.73242 152.724Z" fill="#392B00"/>
<path d="M62.7246 178.341H88.3416V152.724C83.597 164.327 74.3279 173.597 62.7246 178.341Z" fill="#392B00"/>
<path d="M80.914 110.787C73.1297 99.2905 59.9683 91.7322 45.0381 91.7322C30.1078 91.7322 16.9465 99.2905 9.16211 110.787H80.914Z" fill="#2B2926"/>
<path d="M80.914 159.286C73.1297 170.783 59.9683 178.341 45.0381 178.341C30.1078 178.341 16.9465 170.783 9.16211 159.286H80.914Z" fill="#2B2926"/>
<path d="M116.698 155.822L133.303 139.218V155.822H116.698Z" fill="#2B2926"/>
<path d="M139.218 133.303L155.822 116.698V133.303H139.218Z" fill="#2B2926"/>
<path d="M161.736 110.787L178.338 94.1824V110.787H161.736Z" fill="#392B00"/>
<path d="M178.341 114.251H159.286V133.306H178.341V114.251Z" fill="#2B2926"/>
<path d="M113.115 159.286V159.406L94.1826 178.338H113.115H178.338V159.286H113.115Z" fill="#392B00"/>
<path d="M155.822 136.767H136.768V155.822H155.822V136.767Z" fill="#2B2926"/>
<path d="M178.341 136.767H159.286V155.822H178.341V136.767Z" fill="#2B2926"/>
<path d="M200.714 110.714H219.9H223.233H231.356H243.534H245.822H249.287H268.341V104.289V91.6589H245.822H243.534H223.233H219.9H200.714H197.093H181.662V110.714H197.093H200.714Z" fill="#392B00"/>
<path d="M231.356 159.286H181.662V178.338H268.341V161.043V159.286H249.287H231.356Z" fill="#392B00"/>
<path d="M204.327 136.767C205.207 147.436 214.14 155.822 225.035 155.822C235.929 155.822 244.862 147.436 245.742 136.767H204.324H204.327Z" fill="#392B00"/>
<path d="M245.803 114.251H204.251V133.233H245.803V114.251Z" fill="#2B2926"/>
<path d="M358.341 117.349V91.7322H332.724C344.327 96.4767 353.596 105.746 358.341 117.349Z" fill="#392B00"/>
<path d="M297.349 91.7322H271.732V117.349C276.477 105.746 285.746 96.4767 297.349 91.7322Z" fill="#392B00"/>
<path d="M271.732 152.724V178.341H297.349C285.746 173.597 276.477 164.327 271.732 152.724Z" fill="#392B00"/>
<path d="M332.724 178.341H358.341V152.724C353.596 164.327 344.327 173.597 332.724 178.341Z" fill="#392B00"/>
<path d="M290.787 159.286H279.162C282.26 163.863 286.213 167.81 290.787 170.911V159.286Z" fill="#2B2926"/>
<path d="M290.786 136.767H271.771C272.043 143.654 273.919 150.127 277.042 155.822H290.786V136.767Z" fill="#2B2926"/>
<path d="M290.786 114.248H277.042C273.919 119.943 272.043 126.417 271.771 133.303H290.786V114.248Z" fill="#2B2926"/>
<path d="M290.787 99.1621C286.213 102.263 282.26 106.21 279.162 110.787H290.787V99.1621Z" fill="#2B2926"/>
<path d="M313.269 91.7719C306.395 92.0499 299.937 93.9257 294.251 97.0419V110.784H313.269V91.7688V91.7719Z" fill="#2B2926"/>
<path d="M339.269 133.303H358.302C358.03 126.417 356.154 119.943 353.032 114.248H339.269V133.303Z" fill="#2B2926"/>
<path d="M313.269 114.248H294.251V133.303H313.269V114.248Z" fill="#2B2926"/>
<path d="M335.803 136.767H316.73V155.822H335.803V136.767Z" fill="#2B2926"/>
<path d="M313.269 136.767H294.251V155.822H313.269V136.767Z" fill="#2B2926"/>
<path d="M339.269 136.767V155.822H353.032C356.154 150.127 358.03 143.654 358.302 136.767H339.269Z" fill="#2B2926"/>
<path d="M313.269 159.287H294.251V173.028C299.937 176.148 306.395 178.023 313.269 178.298V159.283V159.287Z" fill="#2B2926"/>
<path d="M335.803 159.286H316.73V178.304C323.623 178.039 330.103 176.163 335.803 173.04V159.286Z" fill="#2B2926"/>
<path d="M339.269 159.286V170.923C343.851 167.822 347.811 163.869 350.912 159.286H339.269Z" fill="#2B2926"/>
<path d="M339.269 110.787H350.912C347.808 106.204 343.851 102.254 339.269 99.1531V110.787Z" fill="#2B2926"/>
<path d="M335.803 97.0388C330.103 93.9165 323.626 92.0346 316.73 91.7688V110.787H335.803V97.0388Z" fill="#2B2926"/>
<path d="M26.5519 226.767H24.1771H1.66113V245.823H24.1771H26.5519H43.2331V226.767H26.5519Z" fill="#392B00"/>
<path d="M65.8223 181.658H63.5298H43.2331H39.8981H20.7141H17.0925H1.66113V200.714H17.0925H20.7141H39.8981H43.2331H63.5298H65.8223H69.2854V204.177V223.23V249.286H1.66113V268.339H88.3413V251.042V249.286V223.23V204.177V200.714V194.288V181.658H65.8223Z" fill="#392B00"/>
<path d="M24.1805 223.23H43.2334V204.178H24.1805L24.1805 223.23Z" fill="#2B2926"/>
<path d="M1.658 223.23H20.7109L20.7109 204.178H1.658L1.658 223.23Z" fill="#2B2926"/>
<path d="M133.304 245.823V225.075C126.417 225.346 119.946 227.224 114.251 230.345V245.823H133.304Z" fill="#2B2926"/>
<path d="M159.286 232.458V245.823H172.026C168.782 240.506 164.429 235.942 159.286 232.458Z" fill="#2B2926"/>
<path d="M173.927 249.286H96.1426C93.3197 255.035 91.7314 261.501 91.7314 268.339H178.339C178.339 261.501 176.75 255.035 173.927 249.286Z" fill="#392B00"/>
<path d="M110.784 232.458C105.639 235.942 101.285 240.506 98.0449 245.823H110.784V232.458Z" fill="#2B2926"/>
<path d="M155.822 245.823V230.345C150.128 227.224 143.656 225.346 136.77 225.075V245.823H155.822Z" fill="#2B2926"/>
<path d="M224.965 228.501C244.533 228.501 261.293 216.481 268.268 199.422V268.342H181.661V199.422C188.636 216.481 205.397 228.501 224.965 228.501Z" fill="#392B00"/>
<path d="M268.268 181.731C268.268 188.569 266.679 195.035 263.856 200.784H186.073C183.25 195.035 181.662 188.569 181.662 181.731H268.268Z" fill="#2B2926"/>
<path d="M294.33 226.767C295.211 237.436 304.143 245.82 315.038 245.82C325.934 245.82 334.866 237.433 335.747 226.767H294.33Z" fill="#392B00"/>
<path d="M313.27 223.304V204.33C303.189 205.18 295.162 213.219 294.33 223.304H313.27Z" fill="#2B2926"/>
<path d="M316.77 223.267H335.743C334.893 213.186 326.854 205.159 316.77 204.327V223.267Z" fill="#2B2926"/>
<path d="M65.8195 271.731H46.7666V290.784H65.8195V271.731Z" fill="#2B2926"/>
<path d="M88.3391 271.731H69.2861V290.784H88.3391V271.731Z" fill="#2B2926"/>
<path d="M20.7844 271.731H1.73145V290.784H20.7844V271.731Z" fill="#2B2926"/>
<path d="M43.3039 271.731H24.251V290.784H43.3039V271.731Z" fill="#2B2926"/>
<path d="M65.8195 316.767H46.7666V335.82H65.8195V316.767Z" fill="#2B2926"/>
<path d="M88.3391 316.767H69.2861V335.82H88.3391V316.767Z" fill="#2B2926"/>
<path d="M1.66158 358.339H88.3418V339.286H1.66158V358.339Z" fill="#2B2926"/>
<path d="M24.1775 335.823H43.2305V316.77H24.1775L24.1775 335.823Z" fill="#2B2926"/>
<path d="M24.1771 313.303H65.8223V294.251H24.1771V313.303Z" fill="#392B00"/>
<path d="M1.66092 335.823H20.7139L20.7139 316.77H1.66092L1.66092 335.823Z" fill="#2B2926"/>
<path d="M148.398 301.755H121.758V328.316H148.398V301.755Z" fill="#2B2926"/>
<path d="M178.341 271.732H151.862V298.293H178.341V271.732Z" fill="#2B2926"/>
<path d="M151.863 301.755V331.78H121.755V358.338H151.863H159.204H178.341V339.861V331.78V301.755H151.863Z" fill="#392B00"/>
<path d="M118.29 331.78H91.7324V358.341H118.29V331.78Z" fill="#2B2926"/>
<path d="M245.822 316.771H226.768V335.825H245.822V316.771Z" fill="#2B2926"/>
<path d="M268.341 316.771H249.286V335.825H268.341V316.771Z" fill="#2B2926"/>
<path d="M181.659 358.341H268.338V339.286H181.659V358.341Z" fill="#2B2926"/>
<path d="M204.175 335.822H223.229V316.767H204.175V335.822Z" fill="#2B2926"/>
<path d="M181.659 335.822H200.714V316.767H181.659V335.822Z" fill="#2B2926"/>
<path d="M296.552 316.767H294.178H271.659V335.822H294.178H296.552H313.233V316.767H296.552Z" fill="#392B00"/>
<path d="M335.822 271.659H333.531H313.233H309.9H290.714H287.093H271.659V290.714H287.093H290.714H309.9H313.233H333.531H335.822H339.287V294.178V313.23V339.286H271.659V358.338H358.341V341.043V339.286V313.23V294.178V290.714V284.289V271.659H335.822Z" fill="#392B00"/>
<path d="M294.178 313.229H313.232V294.175H294.178V313.229Z" fill="#2B2926"/>
<path d="M271.659 313.229H290.714V294.175H271.659V313.229Z" fill="#2B2926"/>
</svg>
