<svg width="100" height="100" viewBox="0 0 100 100" fill="none" xmlns="http://www.w3.org/2000/svg">
<path d="M89.9021 23.0954C81.251 10.3224 66.6271 1.92462 50.04 1.92462C33.453 1.92462 18.8291 10.3224 10.178 23.0954H89.9021Z" fill="#FACD1A"/>
<path d="M89.9021 76.9848C81.251 89.7578 66.6271 98.1556 50.04 98.1556C33.453 98.1556 18.8291 89.7578 10.178 76.9848H89.9021Z" fill="#FACD1A"/>
<path d="M23.0954 51.9647H1.96631C2.26783 59.6151 4.35284 66.8067 7.82036 73.1355H23.0954V51.9647Z" fill="white"/>
<path d="M23.0954 26.9447H7.82353C4.35601 33.2735 2.27101 40.4651 1.96948 48.1155H23.0986V26.9447H23.0954Z" fill="white"/>
<path d="M76.9656 48.1155H98.1139C97.8124 40.4651 95.7274 33.2703 92.2599 26.9447H76.9656V48.1155Z" fill="white"/>
<path d="M48.0769 26.9447H26.9446V48.1155H48.0769V26.9447Z" fill="white"/>
<path d="M73.1132 51.9647H51.9231V73.1355H73.1132V51.9647Z" fill="white"/>
<path d="M48.0769 51.9647H26.9446V73.1355H48.0769V51.9647Z" fill="white"/>
<path d="M76.9656 51.9647V73.1355H92.2599C95.7274 66.8067 97.8124 59.6151 98.1139 51.9647H76.9656Z" fill="white"/>
</svg>
