<svg width="100" height="100" viewBox="0 0 100 100" fill="none" xmlns="http://www.w3.org/2000/svg">
<path d="M73.1355 76.9848H51.9647V98.1556H73.1355V76.9848Z" fill="white"/>
<path d="M98.1556 76.9848H76.9847V98.1556H98.1556V76.9848Z" fill="white"/>
<path d="M23.0954 76.9848H1.92456V98.1556H23.0954V76.9848Z" fill="white"/>
<path d="M48.1155 76.9848H26.9447V98.1556H48.1155V76.9848Z" fill="white"/>
<path d="M73.1355 1.92462H51.9647V23.0954H73.1355V1.92462Z" fill="white"/>
<path d="M98.1556 1.92462H76.9847V23.0954H98.1556V1.92462Z" fill="white"/>
<path d="M23.0954 1.92462H1.92456V23.0954H23.0954V1.92462Z" fill="white"/>
<path d="M48.1155 1.92462H26.9447V23.0954H48.1155V1.92462Z" fill="white"/>
<path d="M27.0312 51.9647C28.0096 63.8172 37.9342 73.1355 50.0401 73.1355C62.1459 73.1355 72.0705 63.8172 73.0489 51.9647H27.0312Z" fill="#FACD1A"/>
</svg>
